<svg width="50" height="50" viewBox="0 0 50 50" fill="none" xmlns="http://www.w3.org/2000/svg">
<path d="M15.3208 23.1396V19.7958C15.3208 19.5979 15.3208 19.5187 15.5791 19.5187C17.7937 19.5187 19.5937 19.3875 20.4875 19.9146C21.3833 20.4396 21.4208 21.1646 21.4354 21.3812C21.45 21.5979 21.4437 21.9083 21.0271 22.6646C20.6104 23.4208 18.7458 23.4354 17.4 23.4354H15.6187C15.4 23.4354 15.3208 23.3562 15.3208 23.1396ZM21.4583 26.6437C21.6646 26.9071 21.8119 27.2118 21.8902 27.5371C21.9684 27.8624 21.9757 28.2008 21.9117 28.5292C21.8477 28.8576 21.7138 29.1684 21.5191 29.4405C21.3244 29.7126 21.0735 29.9397 20.7833 30.1062C20.3571 30.2856 19.8999 30.3797 19.4375 30.3833H15.5979C15.4 30.3833 15.3208 30.3833 15.3208 30.1271V26.1687C15.3208 25.9708 15.3208 25.8917 15.5791 25.8917H18.1312C19.7146 25.8917 20.7041 25.7542 21.4583 26.6437Z" fill="white"/>
<path d="M35.3937 24.8104C35.2875 24.5601 35.1264 24.3369 34.9223 24.1573C34.7182 23.9777 34.4763 23.8463 34.2145 23.7729C33.6912 23.63 33.1436 23.5997 32.6078 23.6841C32.072 23.7685 31.5601 23.9656 31.1062 24.2625C30.6537 24.7196 30.3614 25.3109 30.2728 25.9479C30.2728 26.1708 30.2728 26.2125 30.5374 26.2125H35.4749C35.7187 26.2125 35.7187 26.2125 35.6978 25.9063C35.6745 25.5234 35.5722 25.1499 35.3937 24.8104ZM35.3937 24.8104C35.2875 24.5601 35.1243 24.3369 34.9202 24.1573C34.7161 23.9777 34.4763 23.8463 34.2145 23.7729C33.6912 23.63 33.1436 23.5997 32.6078 23.6841C32.072 23.7685 31.5601 23.9656 31.1062 24.2625C30.6537 24.7196 30.3593 25.3109 30.2708 25.9479C30.2708 26.1708 30.2708 26.2125 30.5353 26.2125H35.4749C35.7187 26.2125 35.7187 26.2125 35.6978 25.9063C35.6745 25.5234 35.568 25.1499 35.3895 24.8104M37.7083 5.20834H13.3333C11.1784 5.20834 9.11174 6.06437 7.58801 7.5881C6.06428 9.11183 5.20825 11.1785 5.20825 13.3333V37.7083C5.20825 39.8632 6.06428 41.9298 7.58801 43.4536C9.11174 44.9773 11.1784 45.8333 13.3333 45.8333H37.7083C39.8631 45.8333 41.9298 44.9773 43.4535 43.4536C44.9772 41.9298 45.8333 39.8632 45.8333 37.7083V13.3333C45.8333 11.1785 44.9772 9.11183 43.4535 7.5881C41.9298 6.06437 39.8631 5.20834 37.7083 5.20834ZM29.7458 18.1458C29.7458 17.9854 29.7458 17.9229 29.9291 17.9229H36.5103V19.6313C36.5103 19.6313 36.5166 19.7521 36.4083 19.7521H30.0312C29.7458 19.7521 29.7458 19.7521 29.7458 19.4688V18.1458ZM23.652 33.0771C21.152 34.4375 16.9499 33.8896 11.9728 33.8896V17.05H19.9145C21.9458 17.05 24.3624 17.5583 25.0124 19.7104C25.3499 20.6504 25.3294 21.6817 24.9547 22.6075C24.58 23.5333 23.8774 24.2886 22.9812 24.7292C23.8073 25.0349 24.5286 25.5709 25.0596 26.2738C25.5907 26.9766 25.9092 27.8169 25.9776 28.6951C26.046 29.5734 25.8613 30.4528 25.4455 31.2294C25.0297 32.006 24.4 32.6472 23.6312 33.0771H23.652ZM38.7853 28.2833H30.6603C30.4374 28.2833 30.2333 28.4042 30.2728 28.6896C30.5166 29.8875 31.0645 31.1479 32.3062 31.3313C32.9618 31.5264 33.6639 31.4964 34.3005 31.2461C34.9371 30.9957 35.4716 30.5395 35.8187 29.95C35.8187 29.95 35.9208 29.8271 35.9812 29.8271H38.6228C38.6228 29.8271 38.7853 29.8271 38.7437 29.9688C38.4651 30.7576 38.0528 31.4927 37.5249 32.1417C36.8189 32.8161 35.9669 33.3187 35.0352 33.6105C34.1035 33.9024 33.117 33.9756 32.1524 33.8244C31.1878 33.6733 30.271 33.3019 29.4732 32.7391C28.6753 32.1763 28.0179 31.4372 27.552 30.5792C27.2654 30.007 27.0868 29.3869 27.0249 28.75C26.6626 27.1492 26.9395 25.4701 27.7968 24.0704C28.654 22.6707 30.0238 21.661 31.6145 21.2563C36.2249 20.2604 39.1499 23.4292 39.1499 27.8979C39.1567 27.9502 39.1515 28.0033 39.1345 28.0531C39.1176 28.103 39.0894 28.1483 39.0521 28.1856C39.0149 28.2228 38.9696 28.251 38.9197 28.268C38.8698 28.2849 38.8167 28.2902 38.7645 28.2833H38.7853ZM34.2353 23.7729C33.7126 23.6279 33.1645 23.5981 32.6291 23.6854C32.0937 23.7688 31.6145 23.8708 31.127 24.2625C30.6395 24.6521 30.3812 25.3104 30.2937 25.9479C30.2937 26.1708 30.2937 26.2125 30.5583 26.2125H35.4749C35.7187 26.2125 35.7187 26.2125 35.6978 25.9063C35.6745 25.5234 35.5722 25.1499 35.3937 24.8104C35.2875 24.5601 35.1264 24.3369 34.9223 24.1573C34.7182 23.9777 34.4763 23.8463 34.2145 23.7729H34.2353Z" fill="white"/>
</svg>
