<svg width="32" height="32" viewBox="0 0 32 32" fill="none" xmlns="http://www.w3.org/2000/svg">
<path d="M10.5859 3.272C10.211 3.64705 10.0003 4.15567 10.0003 4.686C10.0003 5.21633 10.211 5.72494 10.5859 6.1L20.4859 16L10.5859 25.9C10.2216 26.2772 10.02 26.7824 10.0246 27.3068C10.0291 27.8312 10.2395 28.3328 10.6103 28.7036C10.9811 29.0745 11.4827 29.2848 12.0071 29.2893C12.5315 29.2939 13.0367 29.0923 13.4139 28.728L24.7279 17.414C25.1028 17.0389 25.3135 16.5303 25.3135 16C25.3135 15.4697 25.1028 14.9611 24.7279 14.586L13.4139 3.272C13.0388 2.89706 12.5302 2.68642 11.9999 2.68642C11.4696 2.68642 10.961 2.89706 10.5859 3.272Z" fill="black"/>
</svg>
