<svg width="50" height="50" viewBox="0 0 50 50" fill="none" xmlns="http://www.w3.org/2000/svg">
<g clip-path="url(#clip0_230_358)">
<path d="M42.6024 42.6034H35.1939V31.0011C35.1939 28.2344 35.1446 24.6728 31.3408 24.6728C27.4822 24.6728 26.8919 27.6872 26.8919 30.7996V42.6026H19.4834V18.7435H26.5955V22.0041H26.6951C27.4068 20.7871 28.4353 19.786 29.671 19.1073C30.9068 18.4286 32.3034 18.0978 33.7123 18.1501C41.221 18.1501 42.6055 23.0892 42.6055 29.5147L42.6024 42.6034ZM11.1242 15.4822C10.2739 15.4823 9.44264 15.2303 8.73556 14.758C8.02847 14.2857 7.47735 13.6144 7.15181 12.8288C6.82628 12.0433 6.74096 11.1788 6.9067 10.3448C7.07243 9.51078 7.48177 8.74464 8.08292 8.14325C8.68407 7.54187 9.45004 7.13226 10.284 6.96622C11.1179 6.80018 11.9823 6.88516 12.768 7.21043C13.5536 7.5357 14.2251 8.08663 14.6977 8.79357C15.1702 9.50051 15.4225 10.3317 15.4227 11.182C15.4228 11.7466 15.3116 12.3057 15.0957 12.8274C14.8797 13.349 14.5632 13.8231 14.164 14.2224C13.7649 14.6217 13.291 14.9384 12.7694 15.1546C12.2478 15.3708 11.6888 15.4821 11.1242 15.4822ZM14.8284 42.6034H7.41229V18.7435H14.8284V42.6034ZM46.2958 0.00340658H3.68956C2.72252 -0.00750685 1.79066 0.365966 1.09883 1.04175C0.407004 1.71754 0.0118022 2.64036 0 3.60742V46.3918C0.0113983 47.3594 0.406369 48.2828 1.09817 48.9593C1.78998 49.6358 2.72204 50.01 3.68956 49.9997H46.2958C47.2652 50.0119 48.1999 49.6387 48.8944 48.9623C49.589 48.2858 49.9866 47.3613 50 46.3918V3.60434C49.9862 2.63536 49.5883 1.71149 48.8937 1.03572C48.1992 0.359944 47.2648 -0.0124613 46.2958 0.000318379" fill="white"/>
</g>
<defs>
<clipPath id="clip0_230_358">
<rect width="50" height="50" fill="white"/>
</clipPath>
</defs>
</svg>
