<svg width="24" height="25" viewBox="0 0 24 25" fill="none" xmlns="http://www.w3.org/2000/svg">
<path d="M12 0.28125C6.99844 0.28125 3 4.27969 3 9.28125C3 11.0109 3.51562 12.3469 4.41094 13.7016L11.0531 23.7797C11.2547 24.0844 11.6016 24.2812 12 24.2812C12.3984 24.2812 12.75 24.0797 12.9469 23.7797L19.5891 13.7016C20.4844 12.3469 21 11.0109 21 9.28125C21 4.27969 17.0016 0.28125 12 0.28125ZM12 14.2781C9.23906 14.2781 6.99844 12.0375 6.99844 9.27188C6.99844 6.50625 9.23906 4.26562 12 4.26562C14.7609 4.26562 17.0016 6.50625 17.0016 9.27188C17.0016 12.0375 14.7609 14.2781 12 14.2781Z" fill="white"/>
</svg>
