<svg width="16" height="17" viewBox="0 0 16 17" fill="none" xmlns="http://www.w3.org/2000/svg">
<path d="M13.3334 3.16667C13.6698 3.16657 13.9938 3.29361 14.2404 3.52234C14.4871 3.75106 14.6381 4.06457 14.6634 4.40001L14.6667 4.50001V12.5C14.6668 12.8364 14.5398 13.1604 14.311 13.407C14.0823 13.6537 13.7688 13.8048 13.4334 13.83L13.3334 13.8333H2.66671C2.33032 13.8334 2.00633 13.7064 1.75968 13.4777C1.51302 13.2489 1.36194 12.9354 1.33671 12.6L1.33337 12.5V4.50001C1.33327 4.16362 1.46031 3.83963 1.68904 3.59297C1.91777 3.34632 2.23127 3.19523 2.56671 3.17001L2.66671 3.16667H13.3334ZM13.3334 5.44267L8.70671 10.0693C8.51921 10.2566 8.26504 10.3618 8.00004 10.3618C7.73504 10.3618 7.48087 10.2566 7.29337 10.0693L2.66671 5.44267V12.5H13.3334V5.44267ZM12.3907 4.50001H3.60937L8.00004 8.89067L12.3907 4.50001Z" fill="black"/>
</svg>
