<svg width="32" height="32" viewBox="0 0 32 32" fill="none" xmlns="http://www.w3.org/2000/svg">
<path d="M21.4141 28.728C21.789 28.3529 21.9997 27.8443 21.9997 27.314C21.9997 26.7837 21.789 26.2751 21.4141 25.9L11.5141 16L21.4141 6.09999C21.7784 5.72279 21.98 5.21759 21.9754 4.69319C21.9709 4.1688 21.7605 3.66717 21.3897 3.29636C21.0189 2.92554 20.5173 2.7152 19.9929 2.71065C19.4685 2.70609 18.9633 2.90768 18.5861 3.272L7.2721 14.586C6.89715 14.9611 6.68652 15.4697 6.68652 16C6.68652 16.5303 6.89715 17.0389 7.2721 17.414L18.5861 28.728C18.9612 29.1029 19.4698 29.3136 20.0001 29.3136C20.5304 29.3136 21.039 29.1029 21.4141 28.728Z" fill="black"/>
</svg>
