<svg width="12" height="12" viewBox="0 0 12 12" fill="none" xmlns="http://www.w3.org/2000/svg">
<path fill-rule="evenodd" clip-rule="evenodd" d="M1.855 5.286L2.922 4.752C3.11143 4.65747 3.26598 4.50526 3.36338 4.31729C3.46078 4.12931 3.49601 3.91528 3.464 3.706L3.024 0.848C2.9877 0.611965 2.86813 0.396713 2.68692 0.241177C2.5057 0.0856413 2.27481 9.08682e-05 2.036 0H1C0.734784 0 0.48043 0.105357 0.292893 0.292893C0.105357 0.48043 0 0.734784 0 1V3C0 3.709 0.0819999 4.4 0.238 5.062C0.622343 6.69084 1.45275 8.18045 2.63615 9.36385C3.81955 10.5472 5.30915 11.3777 6.938 11.762C7.61385 11.9206 8.30579 12.0005 9 12H11C11.2652 12 11.5196 11.8946 11.7071 11.7071C11.8946 11.5196 12 11.2652 12 11V9.964C11.9999 9.72519 11.9144 9.4943 11.7588 9.31308C11.6033 9.13187 11.388 9.0123 11.152 8.976L8.294 8.536C8.08472 8.50399 7.87069 8.53922 7.68271 8.63662C7.49474 8.73402 7.34253 8.88857 7.248 9.078L6.714 10.145C5.57609 9.77956 4.54166 9.14817 3.69647 8.30315C2.85128 7.45814 2.22067 6.42384 1.855 5.286Z" fill="black"/>
</svg>
