<svg width="48" height="48" viewBox="0 0 48 48" fill="none" xmlns="http://www.w3.org/2000/svg">
<path d="M40 8C41.0092 7.99968 41.9811 8.38081 42.7211 9.06699C43.4611 9.75317 43.9143 10.6937 43.99 11.7L44 12V36C44.0003 37.0092 43.6192 37.9811 42.933 38.7211C42.2468 39.4611 41.3063 39.9143 40.3 39.99L40 40H8C6.99085 40.0003 6.01887 39.6192 5.2789 38.933C4.53894 38.2468 4.08569 37.3063 4.01 36.3L4 36V12C3.99968 10.9908 4.38081 10.0189 5.06699 9.2789C5.75317 8.53894 6.69369 8.08569 7.7 8.01L8 8H40ZM40 14.828L26.12 28.708C25.5575 29.2698 24.795 29.5854 24 29.5854C23.205 29.5854 22.4425 29.2698 21.88 28.708L8 14.828V36H40V14.828ZM37.172 12H10.828L24 25.172L37.172 12Z" fill="black"/>
</svg>
