<svg width="113" height="64" viewBox="0 0 113 64" fill="none" xmlns="http://www.w3.org/2000/svg">
<path d="M73.5 0H39.5C31.2157 0 24.5 6.71573 24.5 15V49C24.5 57.2843 31.2157 64 39.5 64H73.5C81.7843 64 88.5 57.2843 88.5 49V15C88.5 6.71573 81.7843 0 73.5 0Z" fill="url(#paint0_linear_131_443)"/>
<g filter="url(#filter0_d_131_443)">
<path d="M57.4925 49.0392C64.9115 49.0392 69.3823 45.4065 69.3823 39.415C69.3823 34.8858 66.1925 31.607 61.4557 31.0877V30.8993C64.9357 30.333 67.6665 27.1013 67.6665 23.4923C67.6665 18.3498 63.6067 15 57.42 15H43.5V49.0392H57.4925ZM48.9132 19.3167H56.115C60.03 19.3167 62.2533 21.0625 62.2533 24.2235C62.2533 27.5967 59.6675 29.4837 54.9792 29.4837H48.9132V19.3167ZM48.9132 44.7225V33.5177H56.0665C61.19 33.5177 63.8483 35.4048 63.8483 39.0848C63.8483 42.7645 61.2625 44.7225 56.3808 44.7225H48.9132Z" fill="url(#paint1_linear_131_443)"/>
<path d="M57.4925 49.0392C64.9115 49.0392 69.3823 45.4065 69.3823 39.415C69.3823 34.8858 66.1925 31.607 61.4557 31.0877V30.8993C64.9357 30.333 67.6665 27.1013 67.6665 23.4923C67.6665 18.3498 63.6067 15 57.42 15H43.5V49.0392H57.4925ZM48.9132 19.3167H56.115C60.03 19.3167 62.2533 21.0625 62.2533 24.2235C62.2533 27.5967 59.6675 29.4837 54.9792 29.4837H48.9132V19.3167ZM48.9132 44.7225V33.5177H56.0665C61.19 33.5177 63.8483 35.4048 63.8483 39.0848C63.8483 42.7645 61.2625 44.7225 56.3808 44.7225H48.9132Z" stroke="white" stroke-width="0.5"/>
</g>
<defs>
<filter id="filter0_d_131_443" x="39.25" y="11.75" width="34.3823" height="42.5392" filterUnits="userSpaceOnUse" color-interpolation-filters="sRGB">
<feFlood flood-opacity="0" result="BackgroundImageFix"/>
<feColorMatrix in="SourceAlpha" type="matrix" values="0 0 0 0 0 0 0 0 0 0 0 0 0 0 0 0 0 0 127 0" result="hardAlpha"/>
<feOffset dy="1"/>
<feGaussianBlur stdDeviation="2"/>
<feColorMatrix type="matrix" values="0 0 0 0 0 0 0 0 0 0 0 0 0 0 0 0 0 0 0.15 0"/>
<feBlend mode="normal" in2="BackgroundImageFix" result="effect1_dropShadow_131_443"/>
<feBlend mode="normal" in="SourceGraphic" in2="effect1_dropShadow_131_443" result="shape"/>
</filter>
<linearGradient id="paint0_linear_131_443" x1="24.5" y1="0" x2="88.5" y2="64" gradientUnits="userSpaceOnUse">
<stop stop-color="#9013FE"/>
<stop offset="1" stop-color="#6B11F4"/>
</linearGradient>
<linearGradient id="paint1_linear_131_443" x1="45.9483" y1="17.2405" x2="61.6352" y2="43.771" gradientUnits="userSpaceOnUse">
<stop stop-color="white"/>
<stop offset="1" stop-color="#F1E5FC"/>
</linearGradient>
</defs>
</svg>
