<svg width="61" height="82" viewBox="0 0 61 82" fill="none" xmlns="http://www.w3.org/2000/svg">
<g clip-path="url(#clip0_131_455)">
<path d="M28.5 40.9999C28.5 33.529 34.8149 27.4724 42.6049 27.4724C50.3947 27.4724 56.7099 33.529 56.7099 40.9999C56.7099 48.4711 50.3947 54.5275 42.6049 54.5275C34.8149 54.5275 28.5 48.4711 28.5 40.9999Z" fill="#1ABCFE"/>
<path d="M0.290161 68.0551C0.290161 60.5842 6.60514 54.5276 14.3951 54.5276H28.5V68.0551C28.5 75.5262 22.1851 81.5827 14.3951 81.5827C6.60514 81.5827 0.290161 75.5262 0.290161 68.0551Z" fill="#0ACF83"/>
<path d="M28.5 0.41748V27.4725H42.6049C50.3949 27.4725 56.7099 21.416 56.7099 13.945C56.7099 6.47397 50.3949 0.41748 42.6049 0.41748H28.5Z" fill="#FF7262"/>
<path d="M0.290161 13.945C0.290161 21.416 6.60514 27.4725 14.3951 27.4725H28.5V0.41748H14.3951C6.60514 0.41748 0.290161 6.47396 0.290161 13.945Z" fill="#F24E1E"/>
<path d="M0.290161 40.9999C0.290161 48.4711 6.60514 54.5275 14.3951 54.5275H28.5V27.4724H14.3951C6.60514 27.4724 0.290161 33.529 0.290161 40.9999Z" fill="#A259FF"/>
</g>
<defs>
<clipPath id="clip0_131_455">
<rect width="57" height="82" fill="white"/>
</clipPath>
</defs>
</svg>
