<svg width="91" height="82" viewBox="0 0 91 82" fill="none" xmlns="http://www.w3.org/2000/svg">
<g clip-path="url(#clip0_131_447)">
<path d="M45.6599 32.1914C40.8461 32.1914 36.9438 36.0993 36.9438 40.9199C36.9438 45.7405 40.8461 49.6484 45.6599 49.6484C50.4737 49.6484 54.3761 45.7405 54.3761 40.9199C54.3761 36.0993 50.4737 32.1914 45.6599 32.1914Z" fill="#58C4DC"/>
<path d="M90.9936 40.9991C90.9936 34.1465 84.6568 28.1365 74.5675 24.1812C74.7023 23.2905 74.8243 22.4094 74.911 21.5444C75.9061 11.6981 73.537 4.59146 68.2436 1.53016C62.3209 -1.89452 53.9554 0.591185 45.4968 7.36978C37.0382 0.591185 28.6726 -1.89452 22.75 1.53016C17.4565 4.59146 15.0875 11.6981 16.0826 21.5444C16.1693 22.4094 16.2881 23.2937 16.4261 24.1877C15.5851 24.5092 14.7601 24.8501 13.9672 25.207C4.95961 29.262 0 34.8765 0 40.9991C0 47.8517 6.33674 53.8617 16.4261 57.817C16.2881 58.7077 16.1693 59.5888 16.0826 60.4538C15.0875 70.3001 17.4565 77.4067 22.75 80.468C24.57 81.5015 26.6322 82.0299 28.724 81.9987C33.7382 81.9987 39.5934 79.3554 45.4968 74.6284C51.397 79.3554 57.2554 81.9987 62.276 81.9987C64.3678 82.0294 66.4299 81.5011 68.25 80.468C73.5435 77.4067 75.9125 70.3001 74.9174 60.4538C74.8307 59.5888 74.7087 58.7077 74.5739 57.817C84.6633 53.8681 91 47.8484 91 40.9991M62.2375 4.34064C63.5825 4.30814 64.9119 4.63442 66.0896 5.28604C69.7652 7.41159 71.4152 13.1773 70.6126 21.1038C70.5581 21.6441 70.4939 22.1907 70.4168 22.7406C66.2216 21.475 61.9257 20.5724 57.5764 20.0427C54.9399 16.532 52.0079 13.254 48.8128 10.2446C53.8302 6.36007 58.5394 4.34064 62.2343 4.34064M60.5104 49.6814C58.8869 52.5041 57.119 55.2411 55.2138 57.8813C51.9844 58.2136 48.74 58.3789 45.4936 58.3765C42.2482 58.3788 39.0049 58.2135 35.7766 57.8813C33.8765 55.241 32.1139 52.504 30.496 49.6814C28.8725 46.8664 27.3971 43.9684 26.0757 40.9991C27.3971 38.0298 28.8725 35.1318 30.496 32.3168C32.1113 29.5055 33.8685 26.7783 35.7606 24.1459C38.9948 23.8053 42.2447 23.6357 45.4968 23.6378C48.7421 23.6358 51.9854 23.8011 55.2138 24.133C57.1123 26.7695 58.8759 29.501 60.4976 32.3168C62.1198 35.1325 63.5952 38.0304 64.9179 40.9991C63.5952 43.9678 62.1198 46.8657 60.4976 49.6814M67.1265 46.4657C68.1453 49.2486 68.9817 52.0952 69.6303 54.9872C66.8154 55.8663 63.9458 56.5591 61.0401 57.0613C62.1444 55.3934 63.2144 53.6581 64.2502 51.8551C65.2742 50.0737 66.2341 48.2761 67.1393 46.4786M39.4008 62.5215C41.3975 62.6437 43.4359 62.7144 45.5 62.7144C47.5641 62.7144 49.6154 62.6437 51.6152 62.5215C49.7191 64.7966 47.6763 66.9449 45.5 68.9528C43.3284 66.9452 41.291 64.7968 39.4008 62.5215ZM29.9567 57.0549C27.0501 56.555 24.1794 55.8643 21.3632 54.9872C22.0093 52.0997 22.8425 49.2575 23.8575 46.4786C24.7499 48.2761 25.7065 50.0737 26.7466 51.8551C27.7867 53.6366 28.862 55.3924 29.9567 57.0613M23.8575 35.5164C22.8461 32.7478 22.0151 29.9163 21.3697 27.0399C24.1788 26.1619 27.0418 25.4669 29.9406 24.9594C28.8428 26.6219 27.7674 28.3455 26.7305 30.143C25.6937 31.9406 24.7467 33.7156 23.8414 35.5164M51.596 19.4735C49.5993 19.3513 47.5609 19.2806 45.4807 19.2806C43.4177 19.2806 41.3847 19.3449 39.3815 19.4735C41.2717 17.1981 43.3092 15.0497 45.4807 13.0422C47.6578 15.0492 49.7007 17.1976 51.596 19.4735ZM64.2438 30.143C63.2037 28.338 62.1283 26.6015 61.0176 24.9337C63.931 25.4359 66.8081 26.1298 69.6303 27.011C68.9828 29.8981 68.1496 32.7402 67.1361 35.5196C66.2437 33.7221 65.2839 31.9245 64.247 30.1463M20.3938 21.1071C19.5816 13.1837 21.2413 7.4148 24.9136 5.28926C26.0917 4.63865 27.4209 4.31244 28.7657 4.34385C32.4606 4.34385 37.1698 6.36328 42.1872 10.2478C38.9899 13.2593 36.0559 16.5395 33.4172 20.0523C29.0691 20.5846 24.7737 21.4839 20.5768 22.7406C20.5029 22.1907 20.4355 21.6473 20.3842 21.1071M15.7456 29.1655C16.2399 28.9511 16.7439 28.7367 17.2575 28.5224C18.2673 32.7897 19.6365 36.9636 21.3504 40.9991C19.6332 45.0426 18.2629 49.2252 17.2543 53.5016C9.07496 50.1412 4.33364 45.4849 4.33364 40.9991C4.33364 36.748 8.50677 32.4358 15.7456 29.1655ZM24.9136 76.7089C21.2413 74.5834 19.5816 68.8145 20.3938 60.8911C20.4451 60.3509 20.5126 59.8075 20.5864 59.2544C24.7817 60.5196 29.0776 61.4222 33.4268 61.9523C36.0642 65.4643 38.996 68.7444 42.1904 71.7568C35.1956 77.1688 28.8043 78.9535 24.9232 76.7089M70.6094 60.8911C71.412 68.8177 69.762 74.5834 66.0864 76.7089C62.2086 78.9599 55.8141 77.1688 48.8225 71.7568C52.0158 68.7443 54.9465 65.4642 57.5828 61.9523C61.9321 61.4226 66.228 60.5199 70.4232 59.2544C70.5003 59.8075 70.5645 60.3509 70.6191 60.8911M73.7585 53.4951C72.7471 49.2212 71.3757 45.0409 69.6592 40.9991C71.375 36.9551 72.7453 32.7726 73.7553 28.4966C81.9186 31.857 86.6728 36.5133 86.6728 40.9991C86.6728 45.4849 81.9315 50.1412 73.7521 53.5016" fill="#58C4DC"/>
</g>
<defs>
<clipPath id="clip0_131_447">
<rect width="91" height="82" fill="white"/>
</clipPath>
</defs>
</svg>
