<svg width="17" height="16" viewBox="0 0 17 16" fill="none" xmlns="http://www.w3.org/2000/svg">
<path d="M2.8375 0.200012H13.175C14.7375 0.200012 16.0125 1.46251 16.0125 3.03751V12.975C16.0125 14.5375 14.75 15.8125 13.175 15.8125H2.8375C1.2625 15.8 0 14.5375 0 12.9625V3.03751C0 1.46251 1.2625 0.200012 2.8375 0.200012Z" fill="#330000"/>
<path d="M7.73762 9.53748H5.25012L4.75012 11.1C4.73762 11.1625 4.68762 11.2 4.62512 11.1875H3.37512C3.30012 11.1875 3.28762 11.15 3.30012 11.0625L5.45012 4.88748C5.47512 4.82498 5.48762 4.74998 5.51262 4.66248C5.53762 4.52498 5.55012 4.37498 5.55012 4.22498C5.53762 4.18748 5.57512 4.16248 5.60012 4.14998H7.32512C7.37512 4.14998 7.40012 4.17498 7.41262 4.19998L9.85012 11.0625C9.87512 11.1375 9.85012 11.175 9.78762 11.175H8.38762C8.33762 11.1875 8.30012 11.15 8.27512 11.1L7.73762 9.53748ZM5.63762 8.17498H7.32512C7.28762 8.03748 7.23762 7.86248 7.17512 7.69998C7.11262 7.52498 7.05012 7.32498 7.00012 7.12498C6.93762 6.91248 6.87512 6.71248 6.81262 6.51248C6.75012 6.29998 6.68762 6.11248 6.63762 5.92498C6.58762 5.73748 6.53762 5.56248 6.48762 5.39998H6.47512C6.41262 5.68748 6.33762 5.97498 6.25012 6.26248C6.15012 6.58748 6.05012 6.91248 5.93762 7.24998C5.83762 7.58748 5.73762 7.89998 5.63762 8.17498ZM11.3376 5.33748C11.1126 5.34998 10.9001 5.26248 10.7501 5.09998C10.6001 4.93748 10.5126 4.71248 10.5251 4.48748C10.5126 4.26248 10.6001 4.04998 10.7626 3.89998C10.9251 3.74998 11.1376 3.66248 11.3501 3.66248C11.6126 3.66248 11.8126 3.73748 11.9626 3.89998C12.1126 4.06248 12.1876 4.27498 12.1876 4.48748C12.2001 4.71248 12.1126 4.93748 11.9501 5.09998C11.7876 5.26248 11.5626 5.34998 11.3376 5.33748ZM10.5876 11.125V5.98748C10.5876 5.92498 10.6126 5.89998 10.6751 5.89998H12.0001C12.0626 5.89998 12.0876 5.93748 12.0876 5.98748V11.125C12.0876 11.2 12.0626 11.2375 12.0001 11.2375H10.6876C10.6251 11.225 10.5876 11.1875 10.5876 11.125Z" fill="#FF9A00"/>
</svg>
