<svg width="16" height="16" viewBox="0 0 16 16" fill="none" xmlns="http://www.w3.org/2000/svg">
<path d="M12.25 0H3.75C1.67893 0 0 1.67893 0 3.75V12.25C0 14.3211 1.67893 16 3.75 16H12.25C14.3211 16 16 14.3211 16 12.25V3.75C16 1.67893 14.3211 0 12.25 0Z" fill="#00005B"/>
<path d="M6.5723 9.7575H4.0923L3.58562 11.3308C3.5723 11.3908 3.51899 11.4308 3.45899 11.4242H2.20562C2.1323 11.4242 2.1123 11.3842 2.1323 11.3042L4.27899 5.15081C4.29899 5.08419 4.31899 5.02419 4.34562 4.94419C4.3723 4.80419 4.38562 4.6575 4.38562 4.51081C4.37899 4.4775 4.40562 4.44419 4.43893 4.4375H6.16562C6.2123 4.4375 6.24562 4.4575 6.2523 4.49081L8.68562 11.2908C8.70562 11.3642 8.68562 11.3975 8.61899 11.3975H7.22562C7.17899 11.4042 7.1323 11.3708 7.11899 11.3242L6.5723 9.72419V9.7575ZM4.47899 8.43081H6.1723C6.1323 8.29081 6.07893 8.12419 6.01893 7.95081C5.95893 7.77081 5.89893 7.5775 5.83893 7.3775C5.7723 7.17081 5.7123 6.97081 5.64562 6.76419C5.57893 6.55756 5.51899 6.36419 5.46562 6.17081C5.4123 5.98419 5.36562 5.81081 5.31893 5.65081H5.30562C5.24562 5.9375 5.1723 6.22419 5.07893 6.51081C4.97893 6.83081 4.87893 7.16419 4.7723 7.4975C4.68562 7.8375 4.57893 8.15081 4.47899 8.43081ZM12.6123 9.1575H10.499C10.5256 9.36419 10.5923 9.57081 10.7056 9.75081C10.8256 9.93081 10.9923 10.0708 11.1923 10.1508C11.459 10.2642 11.7523 10.3242 12.0456 10.3175C12.279 10.3108 12.5123 10.2908 12.739 10.2442C12.9423 10.2176 13.1416 10.1661 13.3323 10.0908C13.3656 10.0642 13.3856 10.0775 13.3856 10.1442V11.1642C13.3856 11.1908 13.379 11.2175 13.3723 11.2442C13.359 11.2642 13.3456 11.2775 13.3256 11.2908C13.1124 11.3845 12.8885 11.4516 12.659 11.4908C12.3471 11.5508 12.0298 11.5776 11.7123 11.5708C11.2056 11.5708 10.779 11.4908 10.4323 11.3375C10.1056 11.1975 9.81899 10.9775 9.5923 10.7042C9.38123 10.4473 9.22471 10.1502 9.1323 9.83081C9.03899 9.5175 8.9923 9.19081 8.9923 8.8575C8.9923 8.4975 9.04562 8.14419 9.15899 7.7975C9.26526 7.46369 9.43504 7.15357 9.65899 6.88419C9.87899 6.6175 10.1523 6.40419 10.4656 6.25081C10.779 6.0975 11.1523 6.04419 11.579 6.04419C11.9323 6.0375 12.2856 6.10419 12.6123 6.25081C12.8856 6.37081 13.1256 6.55081 13.3123 6.78419C13.4856 7.01081 13.6256 7.26419 13.7123 7.54419C13.799 7.81081 13.839 8.08419 13.839 8.3575C13.839 8.5175 13.8323 8.6575 13.8256 8.78419C13.8123 8.91081 13.8056 9.00419 13.799 9.06419C13.7923 9.11081 13.7523 9.15081 13.7056 9.15081C13.6656 9.15081 13.5923 9.1575 13.4856 9.16419C13.379 9.1775 13.2523 9.18419 13.099 9.18419C12.9456 9.18419 12.7856 9.1575 12.6123 9.1575ZM10.499 8.18419H11.9056C12.079 8.18419 12.2056 8.18419 12.2856 8.1775C12.339 8.17081 12.3923 8.1575 12.439 8.12419V8.0575C12.4392 7.97364 12.4257 7.89031 12.399 7.81081C12.279 7.4375 11.9256 7.18419 11.5323 7.1975C11.3514 7.18736 11.1714 7.22981 11.014 7.31972C10.8567 7.40963 10.7287 7.54316 10.6456 7.70419C10.5656 7.8575 10.519 8.0175 10.499 8.18419Z" fill="#9999FF"/>
</svg>
