<svg width="107" height="64" viewBox="0 0 107 64" fill="none" xmlns="http://www.w3.org/2000/svg">
<path d="M32.8335 0.800049H74.1665C80.4335 0.800049 85.5 5.86655 85.5 12.1335V51.8666C85.5 58.1336 80.4335 63.2001 74.1665 63.2001H32.8335C26.5665 63.2001 21.5 58.1336 21.5 51.8666V12.1335C21.5 5.86655 26.5665 0.800049 32.8335 0.800049Z" fill="#001E36"/>
<path d="M44.4335 16.6665C43.6335 16.6665 42.8335 16.6665 42.007 16.6935C41.18 16.72 40.4065 16.72 39.6865 16.747C38.9665 16.7735 38.3 16.7735 37.66 16.8C37.0465 16.8265 36.62 16.8265 36.1665 16.8265C35.98 16.8265 35.9 16.933 35.9 17.12V44.56C35.9 44.8 36.0065 44.907 36.22 44.907H41.3935C41.58 44.88 41.7135 44.72 41.6865 44.5335V35.9735C42.193 35.9735 42.5665 35.9735 42.8335 36C43.1 36.0265 43.5265 36.0265 44.1665 36.0265C46.3535 36.0265 48.3535 35.7865 50.1665 35.12C51.9 34.48 53.3935 33.36 54.46 31.8665C55.5267 30.3732 56.06 28.4798 56.06 26.1865C56.06 24.9865 55.847 23.84 55.447 22.72C55.0231 21.579 54.3592 20.5422 53.5 19.68C52.4859 18.6948 51.2652 17.9478 49.9265 17.493C48.433 16.933 46.62 16.6665 44.4335 16.6665ZM45.0285 21.919C45.9785 21.937 46.9035 22.103 47.7665 22.453C48.54 22.7465 49.18 23.28 49.6335 23.973C50.0588 24.6902 50.2716 25.5135 50.247 26.347C50.247 27.52 49.98 28.427 49.42 29.0935C48.833 29.76 48.0865 30.267 47.2335 30.507C46.2465 30.827 45.2065 30.9865 44.1665 30.9865H42.753C42.433 30.9865 42.087 30.96 41.7135 30.9335V21.9735C41.9 21.9465 42.2735 21.92 42.807 21.947C43.3135 21.92 43.9265 21.92 44.62 21.92C44.7567 21.9167 44.8928 21.9163 45.0285 21.919ZM67.3935 23.2805C65.5 23.2805 63.9265 23.5735 62.6735 24.2135C61.527 24.747 60.54 25.6 59.8735 26.6665C59.287 27.6535 58.9665 28.7465 58.9665 29.8935C58.9437 30.8369 59.1545 31.7713 59.58 32.6135C60.0787 33.5103 60.7712 34.2846 61.607 34.88C62.7801 35.6823 64.053 36.3278 65.3935 36.8C66.7 37.3065 67.58 37.7065 68.007 38.053C68.4335 38.4 68.647 38.7465 68.647 39.12C68.647 39.6 68.3535 40.0535 67.927 40.24C67.447 40.48 66.727 40.6135 65.7135 40.6135C64.647 40.6135 63.58 40.48 62.5665 40.2135C61.4028 39.9536 60.2871 39.5127 59.26 38.907C59.18 38.8535 59.1 38.827 59.02 38.8805C58.94 38.9335 58.9135 39.04 58.9135 39.12V43.76C58.887 43.9735 59.02 44.16 59.207 44.2665C60.0718 44.6705 60.9865 44.9575 61.927 45.12C63.127 45.36 64.3265 45.4665 65.553 45.4665C67.473 45.4665 69.0735 45.1735 70.38 44.6135C71.58 44.1335 72.62 43.307 73.3665 42.24C74.0656 41.1911 74.4284 39.9539 74.4065 38.6935C74.4328 37.7414 74.2222 36.7976 73.7935 35.947C73.2865 35.04 72.5665 34.2935 71.6865 33.7335C70.3991 32.925 69.0207 32.2715 67.58 31.7865C66.9366 31.5202 66.3049 31.2266 65.6865 30.9065C65.34 30.72 65.02 30.48 64.78 30.1865C64.62 29.973 64.5135 29.7335 64.5135 29.4935C64.5135 29.2535 64.5935 28.987 64.7265 28.7735C64.9135 28.507 65.2065 28.32 65.553 28.24C66.06 28.107 66.62 28.0265 67.153 28.053C68.1665 28.053 69.153 28.1865 70.14 28.4C71.047 28.5865 71.9 28.88 72.7 29.307C72.8065 29.36 72.94 29.36 73.18 29.307C73.2217 29.2761 73.2555 29.2359 73.2787 29.1895C73.3019 29.1431 73.3138 29.0919 73.3135 29.04V24.6935C73.3135 24.5865 73.2865 24.48 73.26 24.3735C73.2065 24.267 73.1 24.16 72.9935 24.1335C72.258 23.8329 71.4874 23.6268 70.7 23.52C69.605 23.3606 68.5 23.2809 67.3935 23.2805Z" fill="#31A8FF"/>
</svg>
