<svg width="16" height="16" viewBox="0 0 16 16" fill="none" xmlns="http://www.w3.org/2000/svg">
<path d="M2.83337 0.200012H13.1666C14.7334 0.200012 16 1.46664 16 3.03339V12.9666C16 14.5334 14.7334 15.8 13.1666 15.8H2.83337C1.26662 15.8 0 14.5334 0 12.9666V3.03339C0 1.46664 1.26662 0.200012 2.83337 0.200012Z" fill="#470137"/>
<path d="M8.41336 4.29998L6.41336 7.59998L8.54661 11.1C8.55998 11.1266 8.56661 11.1534 8.55998 11.18C8.55336 11.2066 8.52661 11.1866 8.48661 11.1934H6.95998C6.85336 11.1934 6.77998 11.1866 6.73336 11.12C6.59336 10.84 6.44661 10.5666 6.30661 10.2866C6.16661 10.0134 6.01336 9.73336 5.85336 9.44661C5.69336 9.15986 5.53336 8.87336 5.37336 8.57998H5.35998C5.21998 8.86661 5.06661 9.15336 4.91336 9.43998C4.76101 9.72379 4.60988 10.0083 4.45998 10.2934C4.30661 10.5734 4.15336 10.86 3.99998 11.1334C3.97336 11.2 3.91998 11.2066 3.84661 11.2066H2.37998C2.35336 11.2066 2.33336 11.22 2.33336 11.1866C2.33037 11.1741 2.33001 11.1612 2.33229 11.1486C2.33457 11.136 2.33944 11.124 2.34661 11.1134L4.41998 7.71336L2.39998 4.29336C2.37998 4.26661 2.37336 4.23998 2.38661 4.22661C2.39998 4.20661 2.42661 4.19998 2.45336 4.19998H3.96661C3.99998 4.19998 4.03336 4.20661 4.05998 4.21336C4.08661 4.22661 4.10661 4.24661 4.12661 4.27336C4.25336 4.55998 4.39998 4.84661 4.55336 5.13336C4.71336 5.41998 4.86661 5.69998 5.03336 5.97998C5.19336 6.25998 5.33998 6.53998 5.47998 6.82661H5.49336C5.63336 6.53336 5.77998 6.24661 5.92661 5.96661C6.07323 5.68661 6.22661 5.40661 6.37998 5.12661C6.53336 4.84661 6.67998 4.55998 6.82661 4.28661C6.83336 4.25998 6.84661 4.23336 6.86661 4.21998C6.89336 4.20661 6.91998 4.19998 6.95336 4.20661H8.35998C8.36787 4.20482 8.37604 4.20462 8.38401 4.20601C8.39197 4.20739 8.39959 4.21035 8.40641 4.21469C8.41323 4.21904 8.41913 4.22469 8.42375 4.23133C8.42838 4.23797 8.43164 4.24545 8.43336 4.25336C8.43998 4.25998 8.42661 4.28661 8.41336 4.29998ZM11.4934 11.3334C11 11.34 10.5066 11.24 10.06 11.0334C9.63998 10.84 9.29336 10.52 9.05336 10.1266C8.80661 9.71998 8.68661 9.21336 8.68661 8.60661C8.67998 8.11336 8.80661 7.62661 9.05336 7.19998C9.30661 6.76661 9.67336 6.40661 10.1134 6.16661C10.58 5.90661 11.14 5.77998 11.8 5.77998C11.8334 5.77998 11.88 5.77998 11.94 5.78661C12 5.79336 12.0666 5.79336 12.1466 5.79998V3.69336C12.1466 3.64661 12.1666 3.61998 12.2134 3.61998H13.5666C13.6 3.61336 13.6266 3.63998 13.6334 3.66661V10.0266C13.6334 10.1466 13.64 10.28 13.6466 10.4266C13.66 10.5666 13.6666 10.7 13.6734 10.8134C13.6734 10.86 13.6534 10.9 13.6066 10.92C13.2574 11.0668 12.893 11.1741 12.52 11.24C12.18 11.3 11.84 11.3334 11.4934 11.3334ZM12.1466 9.99998V7.06661C12.0866 7.05336 12.0266 7.03998 11.9666 7.03336C11.8935 7.0255 11.8201 7.02103 11.7466 7.01998C11.4866 7.01998 11.2266 7.07336 10.9934 7.19336C10.7655 7.30685 10.5705 7.47663 10.4266 7.68661C10.28 7.89998 10.2066 8.18661 10.2066 8.53336C10.2009 8.76732 10.2394 9.00026 10.32 9.21998C10.3866 9.39998 10.4866 9.55998 10.62 9.69336C10.7485 9.81606 10.9037 9.90732 11.0734 9.95998C11.2534 10.02 11.44 10.0466 11.6266 10.0466C11.7266 10.0466 11.82 10.04 11.9066 10.0334C11.9934 10.04 12.0666 10.0266 12.1466 9.99998Z" fill="#FF61F6"/>
</svg>
