<svg width="97" height="64" viewBox="0 0 97 64" fill="none" xmlns="http://www.w3.org/2000/svg">
<path d="M20.5 4H76.5V60H20.5V4Z" fill="#F5DE19"/>
<path d="M58.118 47.75C58.5959 48.7186 59.3374 49.5327 60.2572 50.0988C61.1771 50.6648 62.238 50.9599 63.318 50.95C65.498 50.95 66.892 49.86 66.892 48.35C66.892 46.55 65.46 45.906 63.06 44.856L61.744 44.292C57.944 42.674 55.424 40.648 55.424 36.364C55.424 32.418 58.424 29.412 63.13 29.412C64.6534 29.3023 66.1753 29.6433 67.5062 30.3927C68.837 31.1421 69.9179 32.2666 70.614 33.626L66.5 36.256C66.2318 35.582 65.7652 35.0054 65.1619 34.6025C64.5587 34.1997 63.8473 33.9896 63.122 34C62.8055 33.9683 62.4859 34.0029 62.1835 34.1016C61.8812 34.2003 61.6027 34.3608 61.3658 34.5731C61.1289 34.7853 60.9388 35.0446 60.8076 35.3343C60.6765 35.6241 60.6071 35.938 60.604 36.256C60.604 37.834 61.582 38.474 63.84 39.456L65.156 40.02C69.628 41.938 72.156 43.892 72.156 48.286C72.156 53.024 68.434 55.62 63.436 55.62C61.4888 55.7428 59.5476 55.3002 57.8462 54.3453C56.1447 53.3904 54.7556 51.9641 53.846 50.238L58.118 47.75ZM39.528 48.206C40.354 49.672 41.106 50.912 42.914 50.912C44.642 50.912 45.734 50.236 45.734 47.606V29.712H50.996V47.676C50.996 53.124 47.796 55.604 43.138 55.604C41.4915 55.694 39.8563 55.2837 38.4474 54.427C37.0384 53.5703 35.9217 52.3073 35.244 50.804L39.528 48.206Z" fill="black"/>
</svg>
