<svg width="92" height="55" viewBox="0 0 92 55" fill="none" xmlns="http://www.w3.org/2000/svg">
<g clip-path="url(#clip0_131_449)">
<path fill-rule="evenodd" clip-rule="evenodd" d="M45.9665 0C33.7222 0 26.0945 6.10366 23.0167 18.311C27.6335 12.2073 32.9862 9.92683 39.1418 11.4024C42.6211 12.2744 45.1636 14.8232 47.9069 17.5732C52.3898 22.2012 57.6087 27.5 68.9833 27.5C81.2276 27.5 88.9222 21.3963 92 9.18902C87.3833 15.2927 82.0305 17.5732 75.9418 16.0305C72.4625 15.1585 69.92 12.6098 67.1767 9.85976C62.6269 5.29878 57.408 0 45.9665 0ZM23.0167 27.5C10.7055 27.5 3.07782 33.6037 0 45.811C4.61673 39.7073 9.96946 37.4268 16.1251 38.9024C19.6044 39.7744 22.1469 42.3232 24.8902 45.0732C29.3731 49.7012 34.592 55 45.9665 55C58.2109 55 65.9055 48.8963 68.9833 36.689C64.3665 42.7927 59.0138 45.0732 52.8582 43.5305C49.3789 42.6585 46.8364 40.1098 44.0931 37.3598C39.6102 32.7988 34.3913 27.5 23.0167 27.5Z" fill="#38BDF8"/>
</g>
<defs>
<clipPath id="clip0_131_449">
<rect width="92" height="55" fill="white"/>
</clipPath>
</defs>
</svg>
