<svg width="110" height="64" viewBox="0 0 110 64" fill="none" xmlns="http://www.w3.org/2000/svg">
<path d="M34.35 0.800049H75.7C81.95 0.800049 87.05 5.85005 87.05 12.15V51.9001C87.05 58.1501 82 63.25 75.7 63.25H34.35C28.05 63.2 23 58.15 23 51.85V12.15C23 5.85005 28.05 0.800049 34.35 0.800049Z" fill="#330000"/>
<path d="M53.95 38.15H44L42 44.4C41.95 44.65 41.75 44.8 41.5 44.75H36.5C36.2 44.75 36.15 44.6 36.2 44.25L44.8 19.55C44.9 19.3 44.95 19 45.05 18.65C45.15 18.1 45.2 17.5 45.2 16.9C45.15 16.75 45.3 16.65 45.4 16.6H52.3C52.5 16.6 52.6 16.7 52.65 16.8L62.4 44.25C62.5 44.55 62.4 44.7 62.15 44.7H56.55C56.35 44.75 56.2 44.6 56.1 44.4L53.95 38.15ZM45.55 32.7H52.3C52.15 32.15 51.95 31.45 51.7 30.8C51.45 30.1 51.2 29.3 51 28.5C50.75 27.65 50.5 26.85 50.25 26.05C50 25.2 49.75 24.45 49.55 23.7C49.35 22.95 49.15 22.25 48.95 21.6H48.9C48.65 22.75 48.35 23.9 48 25.05C47.6 26.35 47.2 27.65 46.75 29C46.35 30.35 45.95 31.6 45.55 32.7ZM68.35 21.35C67.45 21.4 66.6 21.05 66 20.4C65.4 19.75 65.05 18.85 65.1 17.95C65.05 17.05 65.4 16.2 66.05 15.6C66.7 15 67.55 14.65 68.4 14.65C69.45 14.65 70.25 14.95 70.85 15.6C71.45 16.25 71.75 17.1 71.75 17.95C71.8 18.85 71.45 19.75 70.8 20.4C70.15 21.05 69.25 21.4 68.35 21.35ZM65.35 44.5V23.95C65.35 23.7 65.45 23.6 65.7 23.6H71C71.25 23.6 71.35 23.75 71.35 23.95V44.5C71.35 44.8 71.25 44.95 71 44.95H65.75C65.5 44.9 65.35 44.75 65.35 44.5Z" fill="#FF9A00"/>
</svg>
