<svg width="127" height="64" viewBox="0 0 127 64" fill="none" xmlns="http://www.w3.org/2000/svg">
<path d="M80.5 0H46.5C38.2157 0 31.5 6.71573 31.5 15V49C31.5 57.2843 38.2157 64 46.5 64H80.5C88.7843 64 95.5 57.2843 95.5 49V15C95.5 6.71573 88.7843 0 80.5 0Z" fill="#00005B"/>
<path d="M57.7892 39.03H47.8692L45.8425 45.3232C45.7892 45.5632 45.576 45.7233 45.336 45.6968H40.3225C40.0292 45.6968 39.9492 45.5368 40.0292 45.2168L48.616 20.6033C48.696 20.3368 48.776 20.0968 48.8825 19.7768C48.9892 19.2168 49.0425 18.63 49.0425 18.0432C49.016 17.91 49.1225 17.7768 49.2557 17.75H56.1625C56.3492 17.75 56.4825 17.83 56.5092 17.9632L66.2425 45.1632C66.3225 45.4567 66.2425 45.59 65.976 45.59H60.4025C60.216 45.6168 60.0292 45.4832 59.976 45.2967L57.7892 38.8968V39.03ZM49.416 33.7233H56.1892C56.0292 33.1633 55.8157 32.4967 55.5757 31.8032C55.3357 31.0832 55.0957 30.31 54.8557 29.51C54.5892 28.6833 54.3492 27.8832 54.0825 27.0567C53.8157 26.2302 53.576 25.4568 53.3625 24.6833C53.1492 23.9368 52.9625 23.2433 52.7757 22.6033H52.7225C52.4825 23.75 52.1892 24.8967 51.8157 26.0432C51.4157 27.3232 51.0157 28.6567 50.5892 29.99C50.2425 31.35 49.8157 32.6033 49.416 33.7233ZM81.9492 36.63H73.496C73.6025 37.4568 73.8692 38.2833 74.3225 39.0033C74.8025 39.7233 75.4692 40.2832 76.2692 40.6032C77.336 41.0567 78.5092 41.2968 79.6825 41.27C80.616 41.2433 81.5492 41.1632 82.456 40.9767C83.2692 40.8703 84.0663 40.6643 84.8292 40.3633C84.9625 40.2568 85.0425 40.31 85.0425 40.5768V44.6567C85.0425 44.7632 85.016 44.87 84.9892 44.9767C84.936 45.0567 84.8825 45.11 84.8025 45.1632C83.9497 45.5379 83.0542 45.8065 82.136 45.9632C80.8886 46.2032 79.6193 46.3105 78.3492 46.2832C76.3225 46.2832 74.616 45.9632 73.2292 45.35C71.9225 44.79 70.776 43.91 69.8692 42.8167C69.025 41.7893 68.3989 40.6007 68.0292 39.3232C67.656 38.07 67.4692 36.7633 67.4692 35.43C67.4692 33.99 67.6825 32.5768 68.136 31.19C68.5611 29.8548 69.2402 28.6143 70.136 27.5368C71.016 26.47 72.1092 25.6168 73.3625 25.0033C74.616 24.39 76.1092 24.1768 77.816 24.1768C79.2292 24.15 80.6425 24.4168 81.9492 25.0033C83.0425 25.4833 84.0025 26.2032 84.7492 27.1367C85.4425 28.0432 86.0025 29.0568 86.3492 30.1768C86.696 31.2433 86.856 32.3368 86.856 33.43C86.856 34.07 86.8292 34.63 86.8025 35.1367C86.7492 35.6432 86.7225 36.0167 86.696 36.2567C86.6692 36.4432 86.5092 36.6032 86.3225 36.6032C86.1625 36.6032 85.8692 36.63 85.4425 36.6567C85.016 36.71 84.5092 36.7368 83.896 36.7368C83.2825 36.7368 82.6425 36.63 81.9492 36.63ZM73.496 32.7368H79.1225C79.816 32.7368 80.3225 32.7367 80.6425 32.71C80.856 32.6832 81.0692 32.63 81.256 32.4967V32.23C81.2568 31.8946 81.2028 31.5612 81.096 31.2432C80.616 29.75 79.2025 28.7368 77.6292 28.79C76.9055 28.7494 76.1855 28.9192 75.5562 29.2789C74.9268 29.6385 74.415 30.1726 74.0825 30.8167C73.7625 31.43 73.576 32.07 73.496 32.7368Z" fill="#9999FF"/>
</svg>
