<svg width="91" height="82" viewBox="0 0 91 82" fill="none" xmlns="http://www.w3.org/2000/svg">
<g clip-path="url(#clip0_131_450)">
<path fill-rule="evenodd" clip-rule="evenodd" d="M45.3644 0C20.2791 0 0 18.7917 0 42.0395C0 60.6228 12.9935 76.3531 31.0189 81.9206C33.2726 82.3391 34.0981 81.016 34.0981 79.903C34.0981 78.9284 34.0238 75.5878 34.0238 72.107C21.4045 74.6132 18.7766 67.0956 18.7766 67.0956C16.7486 62.2235 13.7438 60.9713 13.7438 60.9713C9.6135 58.396 14.0446 58.396 14.0446 58.396C18.6262 58.6744 21.0303 62.7112 21.0303 62.7112C25.0854 69.114 31.6197 67.3049 34.2485 66.1911C34.6236 63.4765 35.8261 61.5974 37.1029 60.5536C27.0381 59.579 16.4487 55.9599 16.4487 39.8119C16.4487 35.2181 18.2501 31.4598 21.1046 28.5369C20.6542 27.4931 19.0766 23.177 21.5559 17.4002C21.5559 17.4002 25.3862 16.2864 34.0229 21.7155C37.7205 20.7953 41.5338 20.3271 45.3644 20.3232C49.1948 20.3232 53.0994 20.8109 56.7051 21.7155C65.3426 16.2864 69.173 17.4002 69.173 17.4002C71.6523 23.177 70.0737 27.4931 69.6234 28.5369C72.553 31.4598 74.2801 35.2181 74.2801 39.8119C74.2801 55.9599 63.6907 59.5089 53.5507 60.5536C55.2036 61.8758 56.6299 64.3811 56.6299 68.3487C56.6299 73.9862 56.5556 78.5107 56.5556 79.9022C56.5556 81.016 57.382 82.3391 59.6347 81.9214C77.6601 76.3522 90.6536 60.6228 90.6536 42.0395C90.7279 18.7917 70.3746 0 45.3644 0Z" fill="#24292F"/>
</g>
<defs>
<clipPath id="clip0_131_450">
<rect width="91" height="82" fill="white"/>
</clipPath>
</defs>
</svg>
